<?xml version="1.0" encoding="UTF-8" standalone="no"?>
<!DOCTYPE svg PUBLIC "-//W3C//DTD SVG 1.1//EN"
 "http://www.w3.org/Graphics/SVG/1.1/DTD/svg11.dtd">
<!-- Generated by graphviz version 2.28.0 (20111029.1739)
 -->
<!-- Title: controllers_diagram Pages: 1 -->
<svg width="901pt" height="868pt"
 viewBox="0.00 0.00 901.00 868.00" xmlns="http://www.w3.org/2000/svg" xmlns:xlink="http://www.w3.org/1999/xlink">
<g id="graph1" class="graph" transform="scale(1 1) rotate(0) translate(4 864)">
<title>controllers_diagram</title>
<polygon fill="white" stroke="white" points="-4,5 -4,-864 898,-864 898,5 -4,5"/>
<!-- _diagram_info -->
<g id="node1" class="node"><title>_diagram_info</title>
<text text-anchor="start" x="27" y="-660.8" font-family="Times,serif" font-size="14.00">Controllers diagram</text>
<text text-anchor="start" x="27" y="-645.8" font-family="Times,serif" font-size="14.00">Date: Mar 15 2012 &#45; 15:57</text>
<text text-anchor="start" x="27" y="-630.8" font-family="Times,serif" font-size="14.00">Migration version: 20120309195113</text>
<text text-anchor="start" x="27" y="-615.8" font-family="Times,serif" font-size="14.00">Generated by RailRoad 0.0.0</text>
</g>
<!-- OmniauthCallbacksController -->
<g id="node2" class="node"><title>OmniauthCallbacksController</title>
<polyline fill="none" stroke="black" points="69,-247.5 225,-247.5 "/>
<path fill="none" stroke="black" d="M225,-247.5C231,-247.5 237,-253.5 237,-259.5"/>
<polyline fill="none" stroke="black" points="237,-259.5 237,-328.5 "/>
<path fill="none" stroke="black" d="M237,-328.5C237,-334.5 231,-340.5 225,-340.5"/>
<polyline fill="none" stroke="black" points="225,-340.5 69,-340.5 "/>
<path fill="none" stroke="black" d="M69,-340.5C63,-340.5 57,-334.5 57,-328.5"/>
<polyline fill="none" stroke="black" points="57,-328.5 57,-259.5 "/>
<path fill="none" stroke="black" d="M57,-259.5C57,-253.5 63,-247.5 69,-247.5"/>
<text text-anchor="middle" x="147" y="-325.3" font-family="Times,serif" font-size="14.00">OmniauthCallbacksController</text>
<polyline fill="none" stroke="black" points="57,-317.5 237,-317.5 "/>
<text text-anchor="start" x="65" y="-302.3" font-family="Times,serif" font-size="14.00">facebook</text>
<polyline fill="none" stroke="black" points="57,-294.5 237,-294.5 "/>
<polyline fill="none" stroke="black" points="57,-270.5 237,-270.5 "/>
<text text-anchor="start" x="65" y="-255.3" font-family="Times,serif" font-size="14.00">_layout</text>
</g>
<!-- CommunitiesController -->
<g id="node3" class="node"><title>CommunitiesController</title>
<polyline fill="none" stroke="black" points="544,-532.5 724,-532.5 "/>
<path fill="none" stroke="black" d="M724,-532.5C730,-532.5 736,-538.5 736,-544.5"/>
<polyline fill="none" stroke="black" points="736,-544.5 736,-748.5 "/>
<path fill="none" stroke="black" d="M736,-748.5C736,-754.5 730,-760.5 724,-760.5"/>
<polyline fill="none" stroke="black" points="724,-760.5 544,-760.5 "/>
<path fill="none" stroke="black" d="M544,-760.5C538,-760.5 532,-754.5 532,-748.5"/>
<polyline fill="none" stroke="black" points="532,-748.5 532,-544.5 "/>
<path fill="none" stroke="black" d="M532,-544.5C532,-538.5 538,-532.5 544,-532.5"/>
<text text-anchor="middle" x="634" y="-745.3" font-family="Times,serif" font-size="14.00">CommunitiesController</text>
<polyline fill="none" stroke="black" points="532,-737.5 736,-737.5 "/>
<text text-anchor="start" x="540" y="-722.3" font-family="Times,serif" font-size="14.00">_callback_before_207</text>
<text text-anchor="start" x="540" y="-707.3" font-family="Times,serif" font-size="14.00">_one_time_conditions_valid_208?</text>
<text text-anchor="start" x="540" y="-692.3" font-family="Times,serif" font-size="14.00">_one_time_conditions_valid_210?</text>
<text text-anchor="start" x="540" y="-677.3" font-family="Times,serif" font-size="14.00">create</text>
<text text-anchor="start" x="540" y="-662.3" font-family="Times,serif" font-size="14.00">index</text>
<text text-anchor="start" x="540" y="-647.3" font-family="Times,serif" font-size="14.00">join</text>
<text text-anchor="start" x="540" y="-632.3" font-family="Times,serif" font-size="14.00">leave</text>
<text text-anchor="start" x="540" y="-617.3" font-family="Times,serif" font-size="14.00">new</text>
<text text-anchor="start" x="540" y="-602.3" font-family="Times,serif" font-size="14.00">show</text>
<polyline fill="none" stroke="black" points="532,-594.5 736,-594.5 "/>
<polyline fill="none" stroke="black" points="532,-570.5 736,-570.5 "/>
<text text-anchor="start" x="540" y="-555.3" font-family="Times,serif" font-size="14.00">_layout</text>
<text text-anchor="start" x="540" y="-540.3" font-family="Times,serif" font-size="14.00">load_deocarted_resource</text>
</g>
<!-- ListsController -->
<g id="node4" class="node"><title>ListsController</title>
<polyline fill="none" stroke="black" points="297,-646.5 477,-646.5 "/>
<path fill="none" stroke="black" d="M477,-646.5C483,-646.5 489,-652.5 489,-658.5"/>
<polyline fill="none" stroke="black" points="489,-658.5 489,-847.5 "/>
<path fill="none" stroke="black" d="M489,-847.5C489,-853.5 483,-859.5 477,-859.5"/>
<polyline fill="none" stroke="black" points="477,-859.5 297,-859.5 "/>
<path fill="none" stroke="black" d="M297,-859.5C291,-859.5 285,-853.5 285,-847.5"/>
<polyline fill="none" stroke="black" points="285,-847.5 285,-658.5 "/>
<path fill="none" stroke="black" d="M285,-658.5C285,-652.5 291,-646.5 297,-646.5"/>
<text text-anchor="middle" x="387" y="-844.3" font-family="Times,serif" font-size="14.00">ListsController</text>
<polyline fill="none" stroke="black" points="285,-836.5 489,-836.5 "/>
<text text-anchor="start" x="293" y="-821.3" font-family="Times,serif" font-size="14.00">_callback_before_229</text>
<text text-anchor="start" x="293" y="-806.3" font-family="Times,serif" font-size="14.00">_one_time_conditions_valid_230?</text>
<text text-anchor="start" x="293" y="-791.3" font-family="Times,serif" font-size="14.00">_one_time_conditions_valid_234?</text>
<text text-anchor="start" x="293" y="-776.3" font-family="Times,serif" font-size="14.00">add_user</text>
<text text-anchor="start" x="293" y="-761.3" font-family="Times,serif" font-size="14.00">create</text>
<text text-anchor="start" x="293" y="-746.3" font-family="Times,serif" font-size="14.00">delete_user</text>
<text text-anchor="start" x="293" y="-731.3" font-family="Times,serif" font-size="14.00">destroy</text>
<text text-anchor="start" x="293" y="-716.3" font-family="Times,serif" font-size="14.00">show</text>
<polyline fill="none" stroke="black" points="285,-708.5 489,-708.5 "/>
<polyline fill="none" stroke="black" points="285,-684.5 489,-684.5 "/>
<text text-anchor="start" x="293" y="-669.3" font-family="Times,serif" font-size="14.00">_layout</text>
<text text-anchor="start" x="293" y="-654.3" font-family="Times,serif" font-size="14.00">load_and_authorize_list</text>
</g>
<!-- WantItsController -->
<g id="node5" class="node"><title>WantItsController</title>
<polyline fill="none" stroke="black" points="772,-304.5 864,-304.5 "/>
<path fill="none" stroke="black" d="M864,-304.5C870,-304.5 876,-310.5 876,-316.5"/>
<polyline fill="none" stroke="black" points="876,-316.5 876,-401.5 "/>
<path fill="none" stroke="black" d="M876,-401.5C876,-407.5 870,-413.5 864,-413.5"/>
<polyline fill="none" stroke="black" points="864,-413.5 772,-413.5 "/>
<path fill="none" stroke="black" d="M772,-413.5C766,-413.5 760,-407.5 760,-401.5"/>
<polyline fill="none" stroke="black" points="760,-401.5 760,-316.5 "/>
<path fill="none" stroke="black" d="M760,-316.5C760,-310.5 766,-304.5 772,-304.5"/>
<text text-anchor="middle" x="818" y="-398.3" font-family="Times,serif" font-size="14.00">WantItsController</text>
<polyline fill="none" stroke="black" points="760,-390.5 876,-390.5 "/>
<polyline fill="none" stroke="black" points="760,-366.5 876,-366.5 "/>
<polyline fill="none" stroke="black" points="760,-342.5 876,-342.5 "/>
<text text-anchor="start" x="768" y="-327.3" font-family="Times,serif" font-size="14.00">_layout</text>
<text text-anchor="start" x="768" y="-312.3" font-family="Times,serif" font-size="14.00">item_class</text>
</g>
<!-- HomeController -->
<g id="node6" class="node"><title>HomeController</title>
<polyline fill="none" stroke="black" points="392,-0.5 474,-0.5 "/>
<path fill="none" stroke="black" d="M474,-0.5C480,-0.5 486,-6.5 486,-12.5"/>
<polyline fill="none" stroke="black" points="486,-12.5 486,-81.5 "/>
<path fill="none" stroke="black" d="M486,-81.5C486,-87.5 480,-93.5 474,-93.5"/>
<polyline fill="none" stroke="black" points="474,-93.5 392,-93.5 "/>
<path fill="none" stroke="black" d="M392,-93.5C386,-93.5 380,-87.5 380,-81.5"/>
<polyline fill="none" stroke="black" points="380,-81.5 380,-12.5 "/>
<path fill="none" stroke="black" d="M380,-12.5C380,-6.5 386,-0.5 392,-0.5"/>
<text text-anchor="middle" x="433" y="-78.3" font-family="Times,serif" font-size="14.00">HomeController</text>
<polyline fill="none" stroke="black" points="380,-70.5 486,-70.5 "/>
<text text-anchor="start" x="388" y="-55.3" font-family="Times,serif" font-size="14.00">index</text>
<polyline fill="none" stroke="black" points="380,-47.5 486,-47.5 "/>
<polyline fill="none" stroke="black" points="380,-23.5 486,-23.5 "/>
<text text-anchor="start" x="388" y="-8.3" font-family="Times,serif" font-size="14.00">_layout</text>
</g>
<!-- EventsController -->
<g id="node7" class="node"><title>EventsController</title>
<polyline fill="none" stroke="black" points="525,-95.5 705,-95.5 "/>
<path fill="none" stroke="black" d="M705,-95.5C711,-95.5 717,-101.5 717,-107.5"/>
<polyline fill="none" stroke="black" points="717,-107.5 717,-206.5 "/>
<path fill="none" stroke="black" d="M717,-206.5C717,-212.5 711,-218.5 705,-218.5"/>
<polyline fill="none" stroke="black" points="705,-218.5 525,-218.5 "/>
<path fill="none" stroke="black" d="M525,-218.5C519,-218.5 513,-212.5 513,-206.5"/>
<polyline fill="none" stroke="black" points="513,-206.5 513,-107.5 "/>
<path fill="none" stroke="black" d="M513,-107.5C513,-101.5 519,-95.5 525,-95.5"/>
<text text-anchor="middle" x="615" y="-203.3" font-family="Times,serif" font-size="14.00">EventsController</text>
<polyline fill="none" stroke="black" points="513,-195.5 717,-195.5 "/>
<text text-anchor="start" x="521" y="-180.3" font-family="Times,serif" font-size="14.00">_one_time_conditions_valid_328?</text>
<polyline fill="none" stroke="black" points="513,-172.5 717,-172.5 "/>
<polyline fill="none" stroke="black" points="513,-148.5 717,-148.5 "/>
<text text-anchor="start" x="521" y="-133.3" font-family="Times,serif" font-size="14.00">_layout</text>
<text text-anchor="start" x="521" y="-118.3" font-family="Times,serif" font-size="14.00">convert_times_to_db_format</text>
<text text-anchor="start" x="521" y="-103.3" font-family="Times,serif" font-size="14.00">item_class</text>
</g>
<!-- ItemsController -->
<g id="node8" class="node"><title>ItemsController</title>
<polyline fill="none" stroke="black" points="278,-133.5 458,-133.5 "/>
<path fill="none" stroke="black" d="M458,-133.5C464,-133.5 470,-139.5 470,-145.5"/>
<polyline fill="none" stroke="black" points="470,-145.5 470,-604.5 "/>
<path fill="none" stroke="black" d="M470,-604.5C470,-610.5 464,-616.5 458,-616.5"/>
<polyline fill="none" stroke="black" points="458,-616.5 278,-616.5 "/>
<path fill="none" stroke="black" d="M278,-616.5C272,-616.5 266,-610.5 266,-604.5"/>
<polyline fill="none" stroke="black" points="266,-604.5 266,-145.5 "/>
<path fill="none" stroke="black" d="M266,-145.5C266,-139.5 272,-133.5 278,-133.5"/>
<text text-anchor="middle" x="368" y="-601.3" font-family="Times,serif" font-size="14.00">ItemsController</text>
<polyline fill="none" stroke="black" points="266,-593.5 470,-593.5 "/>
<text text-anchor="start" x="274" y="-578.3" font-family="Times,serif" font-size="14.00">_callback_before_311</text>
<text text-anchor="start" x="274" y="-563.3" font-family="Times,serif" font-size="14.00">_callback_before_331</text>
<text text-anchor="start" x="274" y="-548.3" font-family="Times,serif" font-size="14.00">_one_time_conditions_valid_312?</text>
<text text-anchor="start" x="274" y="-533.3" font-family="Times,serif" font-size="14.00">_one_time_conditions_valid_316?</text>
<text text-anchor="start" x="274" y="-518.3" font-family="Times,serif" font-size="14.00">_one_time_conditions_valid_318?</text>
<text text-anchor="start" x="274" y="-503.3" font-family="Times,serif" font-size="14.00">_one_time_conditions_valid_322?</text>
<text text-anchor="start" x="274" y="-488.3" font-family="Times,serif" font-size="14.00">_one_time_conditions_valid_332?</text>
<text text-anchor="start" x="274" y="-473.3" font-family="Times,serif" font-size="14.00">_one_time_conditions_valid_336?</text>
<text text-anchor="start" x="274" y="-458.3" font-family="Times,serif" font-size="14.00">_one_time_conditions_valid_338?</text>
<text text-anchor="start" x="274" y="-443.3" font-family="Times,serif" font-size="14.00">_one_time_conditions_valid_342?</text>
<text text-anchor="start" x="274" y="-428.3" font-family="Times,serif" font-size="14.00">add_visibility_rule</text>
<text text-anchor="start" x="274" y="-413.3" font-family="Times,serif" font-size="14.00">create</text>
<text text-anchor="start" x="274" y="-398.3" font-family="Times,serif" font-size="14.00">destroy</text>
<text text-anchor="start" x="274" y="-383.3" font-family="Times,serif" font-size="14.00">duplicate</text>
<text text-anchor="start" x="274" y="-368.3" font-family="Times,serif" font-size="14.00">edit</text>
<text text-anchor="start" x="274" y="-353.3" font-family="Times,serif" font-size="14.00">new</text>
<text text-anchor="start" x="274" y="-338.3" font-family="Times,serif" font-size="14.00">remove_visibility_rule</text>
<text text-anchor="start" x="274" y="-323.3" font-family="Times,serif" font-size="14.00">show</text>
<text text-anchor="start" x="274" y="-308.3" font-family="Times,serif" font-size="14.00">toggle_active</text>
<text text-anchor="start" x="274" y="-293.3" font-family="Times,serif" font-size="14.00">update</text>
<polyline fill="none" stroke="black" points="266,-285.5 470,-285.5 "/>
<polyline fill="none" stroke="black" points="266,-261.5 470,-261.5 "/>
<text text-anchor="start" x="274" y="-246.3" font-family="Times,serif" font-size="14.00">_layout</text>
<text text-anchor="start" x="274" y="-231.3" font-family="Times,serif" font-size="14.00">arrayify_ids_fields_in_params</text>
<text text-anchor="start" x="274" y="-216.3" font-family="Times,serif" font-size="14.00">authorize_create_item</text>
<text text-anchor="start" x="274" y="-201.3" font-family="Times,serif" font-size="14.00">format_expires_on</text>
<text text-anchor="start" x="274" y="-186.3" font-family="Times,serif" font-size="14.00">item_class</text>
<text text-anchor="start" x="274" y="-171.3" font-family="Times,serif" font-size="14.00">item_decorator</text>
<text text-anchor="start" x="274" y="-156.3" font-family="Times,serif" font-size="14.00">item_params</text>
<text text-anchor="start" x="274" y="-141.3" font-family="Times,serif" font-size="14.00">load_decorated_resource</text>
</g>
<!-- FeedsController -->
<g id="node9" class="node"><title>FeedsController</title>
<polyline fill="none" stroke="black" points="145,-380.5 225,-380.5 "/>
<path fill="none" stroke="black" d="M225,-380.5C231,-380.5 237,-386.5 237,-392.5"/>
<polyline fill="none" stroke="black" points="237,-392.5 237,-551.5 "/>
<path fill="none" stroke="black" d="M237,-551.5C237,-557.5 231,-563.5 225,-563.5"/>
<polyline fill="none" stroke="black" points="225,-563.5 145,-563.5 "/>
<path fill="none" stroke="black" d="M145,-563.5C139,-563.5 133,-557.5 133,-551.5"/>
<polyline fill="none" stroke="black" points="133,-551.5 133,-392.5 "/>
<path fill="none" stroke="black" d="M133,-392.5C133,-386.5 139,-380.5 145,-380.5"/>
<text text-anchor="middle" x="185" y="-548.3" font-family="Times,serif" font-size="14.00">FeedsController</text>
<polyline fill="none" stroke="black" points="133,-540.5 237,-540.5 "/>
<text text-anchor="start" x="141" y="-525.3" font-family="Times,serif" font-size="14.00">all</text>
<text text-anchor="start" x="141" y="-510.3" font-family="Times,serif" font-size="14.00">drafts</text>
<text text-anchor="start" x="141" y="-495.3" font-family="Times,serif" font-size="14.00">events</text>
<text text-anchor="start" x="141" y="-480.3" font-family="Times,serif" font-size="14.00">have_its</text>
<text text-anchor="start" x="141" y="-465.3" font-family="Times,serif" font-size="14.00">links</text>
<text text-anchor="start" x="141" y="-450.3" font-family="Times,serif" font-size="14.00">thoughts</text>
<text text-anchor="start" x="141" y="-435.3" font-family="Times,serif" font-size="14.00">want_its</text>
<polyline fill="none" stroke="black" points="133,-427.5 237,-427.5 "/>
<polyline fill="none" stroke="black" points="133,-403.5 237,-403.5 "/>
<text text-anchor="start" x="141" y="-388.3" font-family="Times,serif" font-size="14.00">_layout</text>
</g>
<!-- ApplicationController -->
<g id="node10" class="node"><title>ApplicationController</title>
<polyline fill="none" stroke="black" points="50,-722.5 230,-722.5 "/>
<path fill="none" stroke="black" d="M230,-722.5C236,-722.5 242,-728.5 242,-734.5"/>
<polyline fill="none" stroke="black" points="242,-734.5 242,-833.5 "/>
<path fill="none" stroke="black" d="M242,-833.5C242,-839.5 236,-845.5 230,-845.5"/>
<polyline fill="none" stroke="black" points="230,-845.5 50,-845.5 "/>
<path fill="none" stroke="black" d="M50,-845.5C44,-845.5 38,-839.5 38,-833.5"/>
<polyline fill="none" stroke="black" points="38,-833.5 38,-734.5 "/>
<path fill="none" stroke="black" d="M38,-734.5C38,-728.5 44,-722.5 50,-722.5"/>
<text text-anchor="middle" x="140" y="-830.3" font-family="Times,serif" font-size="14.00">ApplicationController</text>
<polyline fill="none" stroke="black" points="38,-822.5 242,-822.5 "/>
<text text-anchor="start" x="46" y="-807.3" font-family="Times,serif" font-size="14.00">_one_time_conditions_valid_160?</text>
<text text-anchor="start" x="46" y="-792.3" font-family="Times,serif" font-size="14.00">_one_time_conditions_valid_162?</text>
<text text-anchor="start" x="46" y="-777.3" font-family="Times,serif" font-size="14.00">set_time_zone</text>
<polyline fill="none" stroke="black" points="38,-769.5 242,-769.5 "/>
<polyline fill="none" stroke="black" points="38,-745.5 242,-745.5 "/>
<text text-anchor="start" x="46" y="-730.3" font-family="Times,serif" font-size="14.00">_layout</text>
</g>
<!-- DelegatesController -->
<g id="node11" class="node"><title>DelegatesController</title>
<polyline fill="none" stroke="black" points="772,-0.5 873,-0.5 "/>
<path fill="none" stroke="black" d="M873,-0.5C879,-0.5 885,-6.5 885,-12.5"/>
<polyline fill="none" stroke="black" points="885,-12.5 885,-96.5 "/>
<path fill="none" stroke="black" d="M885,-96.5C885,-102.5 879,-108.5 873,-108.5"/>
<polyline fill="none" stroke="black" points="873,-108.5 772,-108.5 "/>
<path fill="none" stroke="black" d="M772,-108.5C766,-108.5 760,-102.5 760,-96.5"/>
<polyline fill="none" stroke="black" points="760,-96.5 760,-12.5 "/>
<path fill="none" stroke="black" d="M760,-12.5C760,-6.5 766,-0.5 772,-0.5"/>
<text text-anchor="middle" x="822.5" y="-93.3" font-family="Times,serif" font-size="14.00">DelegatesController</text>
<polyline fill="none" stroke="black" points="760,-85.5 885,-85.5 "/>
<text text-anchor="start" x="768" y="-70.3" font-family="Times,serif" font-size="14.00">create</text>
<text text-anchor="start" x="768" y="-55.3" font-family="Times,serif" font-size="14.00">destroy</text>
<polyline fill="none" stroke="black" points="760,-47.5 885,-47.5 "/>
<polyline fill="none" stroke="black" points="760,-23.5 885,-23.5 "/>
<text text-anchor="start" x="768" y="-8.3" font-family="Times,serif" font-size="14.00">_layout</text>
</g>
<!-- UsersController -->
<g id="node12" class="node"><title>UsersController</title>
<polyline fill="none" stroke="black" points="525,-247.5 705,-247.5 "/>
<path fill="none" stroke="black" d="M705,-247.5C711,-247.5 717,-253.5 717,-259.5"/>
<polyline fill="none" stroke="black" points="717,-259.5 717,-478.5 "/>
<path fill="none" stroke="black" d="M717,-478.5C717,-484.5 711,-490.5 705,-490.5"/>
<polyline fill="none" stroke="black" points="705,-490.5 525,-490.5 "/>
<path fill="none" stroke="black" d="M525,-490.5C519,-490.5 513,-484.5 513,-478.5"/>
<polyline fill="none" stroke="black" points="513,-478.5 513,-259.5 "/>
<path fill="none" stroke="black" d="M513,-259.5C513,-253.5 519,-247.5 525,-247.5"/>
<text text-anchor="middle" x="615" y="-475.3" font-family="Times,serif" font-size="14.00">UsersController</text>
<polyline fill="none" stroke="black" points="513,-467.5 717,-467.5 "/>
<text text-anchor="start" x="521" y="-452.3" font-family="Times,serif" font-size="14.00">_callback_before_353</text>
<text text-anchor="start" x="521" y="-437.3" font-family="Times,serif" font-size="14.00">_one_time_conditions_valid_354?</text>
<text text-anchor="start" x="521" y="-422.3" font-family="Times,serif" font-size="14.00">_one_time_conditions_valid_358?</text>
<text text-anchor="start" x="521" y="-407.3" font-family="Times,serif" font-size="14.00">_one_time_conditions_valid_362?</text>
<text text-anchor="start" x="521" y="-392.3" font-family="Times,serif" font-size="14.00">edit</text>
<text text-anchor="start" x="521" y="-377.3" font-family="Times,serif" font-size="14.00">references</text>
<text text-anchor="start" x="521" y="-362.3" font-family="Times,serif" font-size="14.00">show</text>
<text text-anchor="start" x="521" y="-347.3" font-family="Times,serif" font-size="14.00">update</text>
<text text-anchor="start" x="521" y="-332.3" font-family="Times,serif" font-size="14.00">visibility_options</text>
<polyline fill="none" stroke="black" points="513,-324.5 717,-324.5 "/>
<polyline fill="none" stroke="black" points="513,-300.5 717,-300.5 "/>
<text text-anchor="start" x="521" y="-285.3" font-family="Times,serif" font-size="14.00">_layout</text>
<text text-anchor="start" x="521" y="-270.3" font-family="Times,serif" font-size="14.00">load_resource</text>
<text text-anchor="start" x="521" y="-255.3" font-family="Times,serif" font-size="14.00">load_resource_by_display_name</text>
</g>
<!-- RegistrationsController -->
<g id="node13" class="node"><title>RegistrationsController</title>
<polyline fill="none" stroke="black" points="50,-114.5 219,-114.5 "/>
<path fill="none" stroke="black" d="M219,-114.5C225,-114.5 231,-120.5 231,-126.5"/>
<polyline fill="none" stroke="black" points="231,-126.5 231,-195.5 "/>
<path fill="none" stroke="black" d="M231,-195.5C231,-201.5 225,-207.5 219,-207.5"/>
<polyline fill="none" stroke="black" points="219,-207.5 50,-207.5 "/>
<path fill="none" stroke="black" d="M50,-207.5C44,-207.5 38,-201.5 38,-195.5"/>
<polyline fill="none" stroke="black" points="38,-195.5 38,-126.5 "/>
<path fill="none" stroke="black" d="M38,-126.5C38,-120.5 44,-114.5 50,-114.5"/>
<text text-anchor="middle" x="134.5" y="-192.3" font-family="Times,serif" font-size="14.00">RegistrationsController</text>
<polyline fill="none" stroke="black" points="38,-184.5 231,-184.5 "/>
<text text-anchor="start" x="46" y="-169.3" font-family="Times,serif" font-size="14.00">after_inactive_sign_up_path_for</text>
<polyline fill="none" stroke="black" points="38,-161.5 231,-161.5 "/>
<polyline fill="none" stroke="black" points="38,-137.5 231,-137.5 "/>
<text text-anchor="start" x="46" y="-122.3" font-family="Times,serif" font-size="14.00">_layout</text>
</g>
<!-- LinksController -->
<g id="node14" class="node"><title>LinksController</title>
<polyline fill="none" stroke="black" points="12,-380.5 91,-380.5 "/>
<path fill="none" stroke="black" d="M91,-380.5C97,-380.5 103,-386.5 103,-392.5"/>
<polyline fill="none" stroke="black" points="103,-392.5 103,-477.5 "/>
<path fill="none" stroke="black" d="M103,-477.5C103,-483.5 97,-489.5 91,-489.5"/>
<polyline fill="none" stroke="black" points="91,-489.5 12,-489.5 "/>
<path fill="none" stroke="black" d="M12,-489.5C6,-489.5 0,-483.5 0,-477.5"/>
<polyline fill="none" stroke="black" points="0,-477.5 0,-392.5 "/>
<path fill="none" stroke="black" d="M0,-392.5C0,-386.5 6,-380.5 12,-380.5"/>
<text text-anchor="middle" x="51.5" y="-474.3" font-family="Times,serif" font-size="14.00">LinksController</text>
<polyline fill="none" stroke="black" points="0,-466.5 103,-466.5 "/>
<polyline fill="none" stroke="black" points="0,-442.5 103,-442.5 "/>
<polyline fill="none" stroke="black" points="0,-418.5 103,-418.5 "/>
<text text-anchor="start" x="8" y="-403.3" font-family="Times,serif" font-size="14.00">_layout</text>
<text text-anchor="start" x="8" y="-388.3" font-family="Times,serif" font-size="14.00">item_class</text>
</g>
<!-- HaveItsController -->
<g id="node15" class="node"><title>HaveItsController</title>
<polyline fill="none" stroke="black" points="791,-456.5 881,-456.5 "/>
<path fill="none" stroke="black" d="M881,-456.5C887,-456.5 893,-462.5 893,-468.5"/>
<polyline fill="none" stroke="black" points="893,-468.5 893,-553.5 "/>
<path fill="none" stroke="black" d="M893,-553.5C893,-559.5 887,-565.5 881,-565.5"/>
<polyline fill="none" stroke="black" points="881,-565.5 791,-565.5 "/>
<path fill="none" stroke="black" d="M791,-565.5C785,-565.5 779,-559.5 779,-553.5"/>
<polyline fill="none" stroke="black" points="779,-553.5 779,-468.5 "/>
<path fill="none" stroke="black" d="M779,-468.5C779,-462.5 785,-456.5 791,-456.5"/>
<text text-anchor="middle" x="836" y="-550.3" font-family="Times,serif" font-size="14.00">HaveItsController</text>
<polyline fill="none" stroke="black" points="779,-542.5 893,-542.5 "/>
<polyline fill="none" stroke="black" points="779,-518.5 893,-518.5 "/>
<polyline fill="none" stroke="black" points="779,-494.5 893,-494.5 "/>
<text text-anchor="start" x="787" y="-479.3" font-family="Times,serif" font-size="14.00">_layout</text>
<text text-anchor="start" x="787" y="-464.3" font-family="Times,serif" font-size="14.00">item_class</text>
</g>
<!-- ThoughtsController -->
<g id="node16" class="node"><title>ThoughtsController</title>
<polyline fill="none" stroke="black" points="772,-152.5 871,-152.5 "/>
<path fill="none" stroke="black" d="M871,-152.5C877,-152.5 883,-158.5 883,-164.5"/>
<polyline fill="none" stroke="black" points="883,-164.5 883,-249.5 "/>
<path fill="none" stroke="black" d="M883,-249.5C883,-255.5 877,-261.5 871,-261.5"/>
<polyline fill="none" stroke="black" points="871,-261.5 772,-261.5 "/>
<path fill="none" stroke="black" d="M772,-261.5C766,-261.5 760,-255.5 760,-249.5"/>
<polyline fill="none" stroke="black" points="760,-249.5 760,-164.5 "/>
<path fill="none" stroke="black" d="M760,-164.5C760,-158.5 766,-152.5 772,-152.5"/>
<text text-anchor="middle" x="821.5" y="-246.3" font-family="Times,serif" font-size="14.00">ThoughtsController</text>
<polyline fill="none" stroke="black" points="760,-238.5 883,-238.5 "/>
<polyline fill="none" stroke="black" points="760,-214.5 883,-214.5 "/>
<polyline fill="none" stroke="black" points="760,-190.5 883,-190.5 "/>
<text text-anchor="start" x="768" y="-175.3" font-family="Times,serif" font-size="14.00">_layout</text>
<text text-anchor="start" x="768" y="-160.3" font-family="Times,serif" font-size="14.00">item_class</text>
</g>
</g>
</svg>
