<?xml version="1.0" encoding="UTF-8" standalone="no"?>
<!DOCTYPE svg PUBLIC "-//W3C//DTD SVG 1.1//EN"
 "http://www.w3.org/Graphics/SVG/1.1/DTD/svg11.dtd">
<!-- Generated by graphviz version 2.28.0 (20111029.1739)
 -->
<!-- Title: models_diagram Pages: 1 -->
<svg width="1131pt" height="1118pt"
 viewBox="0.00 0.00 1131.27 1118.00" xmlns="http://www.w3.org/2000/svg" xmlns:xlink="http://www.w3.org/1999/xlink">
<g id="graph1" class="graph" transform="scale(1 1) rotate(0) translate(4 1114)">
<title>models_diagram</title>
<polygon fill="white" stroke="white" points="-4,5 -4,-1114 1128.27,-1114 1128.27,5 -4,5"/>
<!-- _diagram_info -->
<g id="node1" class="node"><title>_diagram_info</title>
<text text-anchor="start" x="352.772" y="-1094.8" font-family="Times,serif" font-size="14.00">Models diagram</text>
<text text-anchor="start" x="352.772" y="-1079.8" font-family="Times,serif" font-size="14.00">Date: Mar 15 2012 &#45; 15:57</text>
<text text-anchor="start" x="352.772" y="-1064.8" font-family="Times,serif" font-size="14.00">Migration version: 20120309195113</text>
<text text-anchor="start" x="352.772" y="-1049.8" font-family="Times,serif" font-size="14.00">Generated by RailRoad 0.0.0</text>
</g>
<!-- HaveIt -->
<g id="node2" class="node"><title>HaveIt</title>
<polyline fill="none" stroke="black" points="67.7723,-511 192.772,-511 "/>
<path fill="none" stroke="black" d="M192.772,-511C198.772,-511 204.772,-517 204.772,-523"/>
<polyline fill="none" stroke="black" points="204.772,-523 204.772,-725 "/>
<path fill="none" stroke="black" d="M204.772,-725C204.772,-731 198.772,-737 192.772,-737"/>
<polyline fill="none" stroke="black" points="192.772,-737 67.7723,-737 "/>
<path fill="none" stroke="black" d="M67.7723,-737C61.7723,-737 55.7723,-731 55.7723,-725"/>
<polyline fill="none" stroke="black" points="55.7723,-725 55.7723,-523 "/>
<path fill="none" stroke="black" d="M55.7723,-523C55.7723,-517 61.7723,-511 67.7723,-511"/>
<text text-anchor="middle" x="130.272" y="-721.8" font-family="Times,serif" font-size="14.00">HaveIt</text>
<polyline fill="none" stroke="black" points="55.7723,-714 204.772,-714 "/>
<text text-anchor="start" x="63.7723" y="-698.8" font-family="Times,serif" font-size="14.00">title :string</text>
<text text-anchor="start" x="63.7723" y="-683.8" font-family="Times,serif" font-size="14.00">description :text</text>
<text text-anchor="start" x="63.7723" y="-668.8" font-family="Times,serif" font-size="14.00">expires_on :date</text>
<text text-anchor="start" x="63.7723" y="-653.8" font-family="Times,serif" font-size="14.00">created_at :datetime</text>
<text text-anchor="start" x="63.7723" y="-638.8" font-family="Times,serif" font-size="14.00">updated_at :datetime</text>
<text text-anchor="start" x="63.7723" y="-623.8" font-family="Times,serif" font-size="14.00">cost :string</text>
<text text-anchor="start" x="63.7723" y="-608.8" font-family="Times,serif" font-size="14.00">condition :string</text>
<text text-anchor="start" x="63.7723" y="-593.8" font-family="Times,serif" font-size="14.00">link :string</text>
<text text-anchor="start" x="63.7723" y="-578.8" font-family="Times,serif" font-size="14.00">location :string</text>
<text text-anchor="start" x="63.7723" y="-563.8" font-family="Times,serif" font-size="14.00">start_datetime :datetime</text>
<text text-anchor="start" x="63.7723" y="-548.8" font-family="Times,serif" font-size="14.00">end_datetime :datetime</text>
<text text-anchor="start" x="63.7723" y="-533.8" font-family="Times,serif" font-size="14.00">active :boolean</text>
<text text-anchor="start" x="63.7723" y="-518.8" font-family="Times,serif" font-size="14.00">public :boolean</text>
</g>
<!-- WantIt -->
<g id="node3" class="node"><title>WantIt</title>
<polyline fill="none" stroke="black" points="234.772,-511 359.772,-511 "/>
<path fill="none" stroke="black" d="M359.772,-511C365.772,-511 371.772,-517 371.772,-523"/>
<polyline fill="none" stroke="black" points="371.772,-523 371.772,-725 "/>
<path fill="none" stroke="black" d="M371.772,-725C371.772,-731 365.772,-737 359.772,-737"/>
<polyline fill="none" stroke="black" points="359.772,-737 234.772,-737 "/>
<path fill="none" stroke="black" d="M234.772,-737C228.772,-737 222.772,-731 222.772,-725"/>
<polyline fill="none" stroke="black" points="222.772,-725 222.772,-523 "/>
<path fill="none" stroke="black" d="M222.772,-523C222.772,-517 228.772,-511 234.772,-511"/>
<text text-anchor="middle" x="297.272" y="-721.8" font-family="Times,serif" font-size="14.00">WantIt</text>
<polyline fill="none" stroke="black" points="222.772,-714 371.772,-714 "/>
<text text-anchor="start" x="230.772" y="-698.8" font-family="Times,serif" font-size="14.00">title :string</text>
<text text-anchor="start" x="230.772" y="-683.8" font-family="Times,serif" font-size="14.00">description :text</text>
<text text-anchor="start" x="230.772" y="-668.8" font-family="Times,serif" font-size="14.00">expires_on :date</text>
<text text-anchor="start" x="230.772" y="-653.8" font-family="Times,serif" font-size="14.00">created_at :datetime</text>
<text text-anchor="start" x="230.772" y="-638.8" font-family="Times,serif" font-size="14.00">updated_at :datetime</text>
<text text-anchor="start" x="230.772" y="-623.8" font-family="Times,serif" font-size="14.00">cost :string</text>
<text text-anchor="start" x="230.772" y="-608.8" font-family="Times,serif" font-size="14.00">condition :string</text>
<text text-anchor="start" x="230.772" y="-593.8" font-family="Times,serif" font-size="14.00">link :string</text>
<text text-anchor="start" x="230.772" y="-578.8" font-family="Times,serif" font-size="14.00">location :string</text>
<text text-anchor="start" x="230.772" y="-563.8" font-family="Times,serif" font-size="14.00">start_datetime :datetime</text>
<text text-anchor="start" x="230.772" y="-548.8" font-family="Times,serif" font-size="14.00">end_datetime :datetime</text>
<text text-anchor="start" x="230.772" y="-533.8" font-family="Times,serif" font-size="14.00">active :boolean</text>
<text text-anchor="start" x="230.772" y="-518.8" font-family="Times,serif" font-size="14.00">public :boolean</text>
</g>
<!-- Thought -->
<g id="node4" class="node"><title>Thought</title>
<polyline fill="none" stroke="black" points="401.772,-511 526.772,-511 "/>
<path fill="none" stroke="black" d="M526.772,-511C532.772,-511 538.772,-517 538.772,-523"/>
<polyline fill="none" stroke="black" points="538.772,-523 538.772,-725 "/>
<path fill="none" stroke="black" d="M538.772,-725C538.772,-731 532.772,-737 526.772,-737"/>
<polyline fill="none" stroke="black" points="526.772,-737 401.772,-737 "/>
<path fill="none" stroke="black" d="M401.772,-737C395.772,-737 389.772,-731 389.772,-725"/>
<polyline fill="none" stroke="black" points="389.772,-725 389.772,-523 "/>
<path fill="none" stroke="black" d="M389.772,-523C389.772,-517 395.772,-511 401.772,-511"/>
<text text-anchor="middle" x="464.272" y="-721.8" font-family="Times,serif" font-size="14.00">Thought</text>
<polyline fill="none" stroke="black" points="389.772,-714 538.772,-714 "/>
<text text-anchor="start" x="397.772" y="-698.8" font-family="Times,serif" font-size="14.00">title :string</text>
<text text-anchor="start" x="397.772" y="-683.8" font-family="Times,serif" font-size="14.00">description :text</text>
<text text-anchor="start" x="397.772" y="-668.8" font-family="Times,serif" font-size="14.00">expires_on :date</text>
<text text-anchor="start" x="397.772" y="-653.8" font-family="Times,serif" font-size="14.00">created_at :datetime</text>
<text text-anchor="start" x="397.772" y="-638.8" font-family="Times,serif" font-size="14.00">updated_at :datetime</text>
<text text-anchor="start" x="397.772" y="-623.8" font-family="Times,serif" font-size="14.00">cost :string</text>
<text text-anchor="start" x="397.772" y="-608.8" font-family="Times,serif" font-size="14.00">condition :string</text>
<text text-anchor="start" x="397.772" y="-593.8" font-family="Times,serif" font-size="14.00">link :string</text>
<text text-anchor="start" x="397.772" y="-578.8" font-family="Times,serif" font-size="14.00">location :string</text>
<text text-anchor="start" x="397.772" y="-563.8" font-family="Times,serif" font-size="14.00">start_datetime :datetime</text>
<text text-anchor="start" x="397.772" y="-548.8" font-family="Times,serif" font-size="14.00">end_datetime :datetime</text>
<text text-anchor="start" x="397.772" y="-533.8" font-family="Times,serif" font-size="14.00">active :boolean</text>
<text text-anchor="start" x="397.772" y="-518.8" font-family="Times,serif" font-size="14.00">public :boolean</text>
</g>
<!-- List -->
<g id="node5" class="node"><title>List</title>
<polyline fill="none" stroke="black" points="568.772,-586 675.772,-586 "/>
<path fill="none" stroke="black" d="M675.772,-586C681.772,-586 687.772,-592 687.772,-598"/>
<polyline fill="none" stroke="black" points="687.772,-598 687.772,-650 "/>
<path fill="none" stroke="black" d="M687.772,-650C687.772,-656 681.772,-662 675.772,-662"/>
<polyline fill="none" stroke="black" points="675.772,-662 568.772,-662 "/>
<path fill="none" stroke="black" d="M568.772,-662C562.772,-662 556.772,-656 556.772,-650"/>
<polyline fill="none" stroke="black" points="556.772,-650 556.772,-598 "/>
<path fill="none" stroke="black" d="M556.772,-598C556.772,-592 562.772,-586 568.772,-586"/>
<text text-anchor="middle" x="622.272" y="-646.8" font-family="Times,serif" font-size="14.00">List</text>
<polyline fill="none" stroke="black" points="556.772,-639 687.772,-639 "/>
<text text-anchor="start" x="564.772" y="-623.8" font-family="Times,serif" font-size="14.00">name :string</text>
<text text-anchor="start" x="564.772" y="-608.8" font-family="Times,serif" font-size="14.00">created_at :datetime</text>
<text text-anchor="start" x="564.772" y="-593.8" font-family="Times,serif" font-size="14.00">updated_at :datetime</text>
</g>
<!-- User -->
<g id="node8" class="node"><title>User</title>
<polyline fill="none" stroke="black" points="534.272,-230.5 710.272,-230.5 "/>
<path fill="none" stroke="black" d="M710.272,-230.5C716.272,-230.5 722.272,-236.5 722.272,-242.5"/>
<polyline fill="none" stroke="black" points="722.272,-242.5 722.272,-459.5 "/>
<path fill="none" stroke="black" d="M722.272,-459.5C722.272,-465.5 716.272,-471.5 710.272,-471.5"/>
<polyline fill="none" stroke="black" points="710.272,-471.5 534.272,-471.5 "/>
<path fill="none" stroke="black" d="M534.272,-471.5C528.272,-471.5 522.272,-465.5 522.272,-459.5"/>
<polyline fill="none" stroke="black" points="522.272,-459.5 522.272,-242.5 "/>
<path fill="none" stroke="black" d="M522.272,-242.5C522.272,-236.5 528.272,-230.5 534.272,-230.5"/>
<text text-anchor="middle" x="622.272" y="-456.3" font-family="Times,serif" font-size="14.00">User</text>
<polyline fill="none" stroke="black" points="522.272,-448.5 722.272,-448.5 "/>
<text text-anchor="start" x="530.272" y="-433.3" font-family="Times,serif" font-size="14.00">email :string</text>
<text text-anchor="start" x="530.272" y="-418.3" font-family="Times,serif" font-size="14.00">encrypted_password :string</text>
<text text-anchor="start" x="530.272" y="-403.3" font-family="Times,serif" font-size="14.00">reset_password_token :string</text>
<text text-anchor="start" x="530.272" y="-388.3" font-family="Times,serif" font-size="14.00">reset_password_sent_at :datetime</text>
<text text-anchor="start" x="530.272" y="-373.3" font-family="Times,serif" font-size="14.00">password_salt :string</text>
<text text-anchor="start" x="530.272" y="-358.3" font-family="Times,serif" font-size="14.00">confirmation_token :string</text>
<text text-anchor="start" x="530.272" y="-343.3" font-family="Times,serif" font-size="14.00">confirmed_at :datetime</text>
<text text-anchor="start" x="530.272" y="-328.3" font-family="Times,serif" font-size="14.00">confirmation_sent_at :datetime</text>
<text text-anchor="start" x="530.272" y="-313.3" font-family="Times,serif" font-size="14.00">created_at :datetime</text>
<text text-anchor="start" x="530.272" y="-298.3" font-family="Times,serif" font-size="14.00">updated_at :datetime</text>
<text text-anchor="start" x="530.272" y="-283.3" font-family="Times,serif" font-size="14.00">first_name :string</text>
<text text-anchor="start" x="530.272" y="-268.3" font-family="Times,serif" font-size="14.00">last_name :string</text>
<text text-anchor="start" x="530.272" y="-253.3" font-family="Times,serif" font-size="14.00">display_name :string</text>
<text text-anchor="start" x="530.272" y="-238.3" font-family="Times,serif" font-size="14.00">user_set_display_name :boolean</text>
</g>
<!-- List&#45;&gt;User -->
<g id="edge8" class="edge"><title>List&#45;&gt;User</title>
<path fill="none" stroke="black" d="M617.001,-575.691C615.959,-549.508 615.467,-515.558 615.527,-482.052"/>
<polygon fill="black" stroke="black" points="617.01,-575.897 612.96,-586.087 617.233,-580.892 617.455,-585.887 617.455,-585.887 617.455,-585.887 617.233,-580.892 621.951,-585.687 617.01,-575.897 617.01,-575.897"/>
<polygon fill="black" stroke="black" points="615.528,-481.677 620.063,-471.693 615.546,-476.677 615.563,-471.677 615.563,-471.677 615.563,-471.677 615.546,-476.677 611.063,-471.662 615.528,-481.677 615.528,-481.677"/>
</g>
<!-- Tag -->
<g id="node6" class="node"><title>Tag</title>
<polyline fill="none" stroke="black" points="591.772,-1053 652.772,-1053 "/>
<path fill="none" stroke="black" d="M652.772,-1053C658.772,-1053 664.772,-1059 664.772,-1065"/>
<polyline fill="none" stroke="black" points="664.772,-1065 664.772,-1087 "/>
<path fill="none" stroke="black" d="M664.772,-1087C664.772,-1093 658.772,-1099 652.772,-1099"/>
<polyline fill="none" stroke="black" points="652.772,-1099 591.772,-1099 "/>
<path fill="none" stroke="black" d="M591.772,-1099C585.772,-1099 579.772,-1093 579.772,-1087"/>
<polyline fill="none" stroke="black" points="579.772,-1087 579.772,-1065 "/>
<path fill="none" stroke="black" d="M579.772,-1065C579.772,-1059 585.772,-1053 591.772,-1053"/>
<text text-anchor="middle" x="622.272" y="-1083.8" font-family="Times,serif" font-size="14.00">Tag</text>
<polyline fill="none" stroke="black" points="579.772,-1076 664.772,-1076 "/>
<text text-anchor="start" x="587.772" y="-1060.8" font-family="Times,serif" font-size="14.00">name :string</text>
</g>
<!-- Item -->
<g id="node12" class="node"><title>Item</title>
<polyline fill="none" stroke="black" points="559.772,-777 684.772,-777 "/>
<path fill="none" stroke="black" d="M684.772,-777C690.772,-777 696.772,-783 696.772,-789"/>
<polyline fill="none" stroke="black" points="696.772,-789 696.772,-991 "/>
<path fill="none" stroke="black" d="M696.772,-991C696.772,-997 690.772,-1003 684.772,-1003"/>
<polyline fill="none" stroke="black" points="684.772,-1003 559.772,-1003 "/>
<path fill="none" stroke="black" d="M559.772,-1003C553.772,-1003 547.772,-997 547.772,-991"/>
<polyline fill="none" stroke="black" points="547.772,-991 547.772,-789 "/>
<path fill="none" stroke="black" d="M547.772,-789C547.772,-783 553.772,-777 559.772,-777"/>
<text text-anchor="middle" x="622.272" y="-987.8" font-family="Times,serif" font-size="14.00">Item</text>
<polyline fill="none" stroke="black" points="547.772,-980 696.772,-980 "/>
<text text-anchor="start" x="555.772" y="-964.8" font-family="Times,serif" font-size="14.00">title :string</text>
<text text-anchor="start" x="555.772" y="-949.8" font-family="Times,serif" font-size="14.00">description :text</text>
<text text-anchor="start" x="555.772" y="-934.8" font-family="Times,serif" font-size="14.00">expires_on :date</text>
<text text-anchor="start" x="555.772" y="-919.8" font-family="Times,serif" font-size="14.00">created_at :datetime</text>
<text text-anchor="start" x="555.772" y="-904.8" font-family="Times,serif" font-size="14.00">updated_at :datetime</text>
<text text-anchor="start" x="555.772" y="-889.8" font-family="Times,serif" font-size="14.00">cost :string</text>
<text text-anchor="start" x="555.772" y="-874.8" font-family="Times,serif" font-size="14.00">condition :string</text>
<text text-anchor="start" x="555.772" y="-859.8" font-family="Times,serif" font-size="14.00">link :string</text>
<text text-anchor="start" x="555.772" y="-844.8" font-family="Times,serif" font-size="14.00">location :string</text>
<text text-anchor="start" x="555.772" y="-829.8" font-family="Times,serif" font-size="14.00">start_datetime :datetime</text>
<text text-anchor="start" x="555.772" y="-814.8" font-family="Times,serif" font-size="14.00">end_datetime :datetime</text>
<text text-anchor="start" x="555.772" y="-799.8" font-family="Times,serif" font-size="14.00">active :boolean</text>
<text text-anchor="start" x="555.772" y="-784.8" font-family="Times,serif" font-size="14.00">public :boolean</text>
</g>
<!-- Tag&#45;&gt;Item -->
<g id="edge10" class="edge"><title>Tag&#45;&gt;Item</title>
<path fill="none" stroke="black" d="M622.272,-1042.53C622.272,-1033.85 622.272,-1023.94 622.272,-1013.42"/>
<polygon fill="black" stroke="black" points="622.272,-1042.81 617.772,-1052.81 622.272,-1047.81 622.272,-1052.81 622.272,-1052.81 622.272,-1052.81 622.272,-1047.81 626.772,-1052.81 622.272,-1042.81 622.272,-1042.81"/>
<polygon fill="black" stroke="black" points="622.272,-1013.18 626.772,-1003.18 622.272,-1008.18 622.272,-1003.18 622.272,-1003.18 622.272,-1003.18 622.272,-1008.18 617.772,-1003.18 622.272,-1013.18 622.272,-1013.18"/>
</g>
<!-- Link -->
<g id="node7" class="node"><title>Link</title>
<polyline fill="none" stroke="black" points="717.772,-511 842.772,-511 "/>
<path fill="none" stroke="black" d="M842.772,-511C848.772,-511 854.772,-517 854.772,-523"/>
<polyline fill="none" stroke="black" points="854.772,-523 854.772,-725 "/>
<path fill="none" stroke="black" d="M854.772,-725C854.772,-731 848.772,-737 842.772,-737"/>
<polyline fill="none" stroke="black" points="842.772,-737 717.772,-737 "/>
<path fill="none" stroke="black" d="M717.772,-737C711.772,-737 705.772,-731 705.772,-725"/>
<polyline fill="none" stroke="black" points="705.772,-725 705.772,-523 "/>
<path fill="none" stroke="black" d="M705.772,-523C705.772,-517 711.772,-511 717.772,-511"/>
<text text-anchor="middle" x="780.272" y="-721.8" font-family="Times,serif" font-size="14.00">Link</text>
<polyline fill="none" stroke="black" points="705.772,-714 854.772,-714 "/>
<text text-anchor="start" x="713.772" y="-698.8" font-family="Times,serif" font-size="14.00">title :string</text>
<text text-anchor="start" x="713.772" y="-683.8" font-family="Times,serif" font-size="14.00">description :text</text>
<text text-anchor="start" x="713.772" y="-668.8" font-family="Times,serif" font-size="14.00">expires_on :date</text>
<text text-anchor="start" x="713.772" y="-653.8" font-family="Times,serif" font-size="14.00">created_at :datetime</text>
<text text-anchor="start" x="713.772" y="-638.8" font-family="Times,serif" font-size="14.00">updated_at :datetime</text>
<text text-anchor="start" x="713.772" y="-623.8" font-family="Times,serif" font-size="14.00">cost :string</text>
<text text-anchor="start" x="713.772" y="-608.8" font-family="Times,serif" font-size="14.00">condition :string</text>
<text text-anchor="start" x="713.772" y="-593.8" font-family="Times,serif" font-size="14.00">link :string</text>
<text text-anchor="start" x="713.772" y="-578.8" font-family="Times,serif" font-size="14.00">location :string</text>
<text text-anchor="start" x="713.772" y="-563.8" font-family="Times,serif" font-size="14.00">start_datetime :datetime</text>
<text text-anchor="start" x="713.772" y="-548.8" font-family="Times,serif" font-size="14.00">end_datetime :datetime</text>
<text text-anchor="start" x="713.772" y="-533.8" font-family="Times,serif" font-size="14.00">active :boolean</text>
<text text-anchor="start" x="713.772" y="-518.8" font-family="Times,serif" font-size="14.00">public :boolean</text>
</g>
<!-- User&#45;&gt;List -->
<g id="edge16" class="edge"><title>User&#45;&gt;List</title>
<path fill="none" stroke="black" d="M629.017,-481.837C629.081,-516.223 628.564,-551.096 627.467,-577.578"/>
<polygon fill="black" stroke="black" points="629.017,-481.677 633.481,-471.661 628.999,-476.677 628.981,-471.677 628.981,-471.677 628.981,-471.677 628.999,-476.677 624.481,-471.693 629.017,-481.677 629.017,-481.677"/>
<ellipse fill="black" stroke="black" cx="627.271" cy="-581.891" rx="4" ry="4"/>
</g>
<!-- User&#45;&gt;User -->
<g id="edge24" class="edge"><title>User&#45;&gt;User</title>
<path fill="none" stroke="black" d="M732.187,-359.236C737.286,-357.155 740.272,-354.409 740.272,-351 740.272,-347.591 737.286,-344.845 732.187,-342.764"/>
<polygon fill="black" stroke="black" points="732.182,-359.237 721.335,-357.629 727.371,-360.598 722.56,-361.959 722.56,-361.959 722.56,-361.959 727.371,-360.598 723.785,-366.289 732.182,-359.237 732.182,-359.237"/>
<polygon fill="black" stroke="black" points="732.182,-342.763 723.785,-335.711 727.371,-341.402 722.56,-340.041 722.56,-340.041 722.56,-340.041 727.371,-341.402 721.335,-344.371 732.182,-342.763 732.182,-342.763"/>
<text text-anchor="middle" x="768.272" y="-347.3" font-family="Times,serif" font-size="14.00">delegators</text>
</g>
<!-- User&#45;&gt;User -->
<g id="edge26" class="edge"><title>User&#45;&gt;User</title>
<path fill="none" stroke="black" d="M732.723,-377.164C767.691,-376.217 796.272,-367.496 796.272,-351 796.272,-334.504 767.691,-325.783 732.723,-324.836"/>
<polygon fill="black" stroke="black" points="732.709,-377.164 722.682,-372.724 727.71,-377.194 722.71,-377.224 722.71,-377.224 722.71,-377.224 727.71,-377.194 722.737,-381.724 732.709,-377.164 732.709,-377.164"/>
<polygon fill="black" stroke="black" points="732.709,-324.836 722.737,-320.276 727.71,-324.806 722.71,-324.776 722.71,-324.776 722.71,-324.776 727.71,-324.806 722.682,-329.276 732.709,-324.836 732.709,-324.836"/>
<text text-anchor="middle" x="824.772" y="-347.3" font-family="Times,serif" font-size="14.00">delegatees</text>
</g>
<!-- Delegate -->
<g id="node11" class="node"><title>Delegate</title>
<polyline fill="none" stroke="black" points="569.772,-101.5 676.772,-101.5 "/>
<path fill="none" stroke="black" d="M676.772,-101.5C682.772,-101.5 688.772,-107.5 688.772,-113.5"/>
<polyline fill="none" stroke="black" points="688.772,-113.5 688.772,-150.5 "/>
<path fill="none" stroke="black" d="M688.772,-150.5C688.772,-156.5 682.772,-162.5 676.772,-162.5"/>
<polyline fill="none" stroke="black" points="676.772,-162.5 569.772,-162.5 "/>
<path fill="none" stroke="black" d="M569.772,-162.5C563.772,-162.5 557.772,-156.5 557.772,-150.5"/>
<polyline fill="none" stroke="black" points="557.772,-150.5 557.772,-113.5 "/>
<path fill="none" stroke="black" d="M557.772,-113.5C557.772,-107.5 563.772,-101.5 569.772,-101.5"/>
<text text-anchor="middle" x="623.272" y="-147.3" font-family="Times,serif" font-size="14.00">Delegate</text>
<polyline fill="none" stroke="black" points="557.772,-139.5 688.772,-139.5 "/>
<text text-anchor="start" x="565.772" y="-124.3" font-family="Times,serif" font-size="14.00">created_at :datetime</text>
<text text-anchor="start" x="565.772" y="-109.3" font-family="Times,serif" font-size="14.00">updated_at :datetime</text>
</g>
<!-- User&#45;&gt;Delegate -->
<g id="edge22" class="edge"><title>User&#45;&gt;Delegate</title>
<path fill="none" stroke="black" d="M679.935,-219.832C679.529,-211.76 678.063,-203.764 675.272,-196 671.862,-186.512 666.336,-177.435 660.132,-169.272"/>
<polygon fill="black" stroke="black" points="679.935,-220.087 675.404,-230.073 679.919,-225.087 679.904,-230.087 679.904,-230.087 679.904,-230.087 679.919,-225.087 684.404,-230.101 679.935,-220.087 679.935,-220.087"/>
<ellipse fill="black" stroke="black" cx="657.301" cy="-165.757" rx="4.00002" ry="4.00002"/>
<text text-anchor="middle" x="741.772" y="-200.3" font-family="Times,serif" font-size="14.00">delegates_as_delegatee</text>
</g>
<!-- User&#45;&gt;Delegate -->
<g id="edge20" class="edge"><title>User&#45;&gt;Delegate</title>
<path fill="none" stroke="black" d="M543.36,-220.275C543.764,-212.068 545.611,-203.925 549.272,-196 554.102,-185.546 561.616,-176.188 570.039,-168.086"/>
<polygon fill="black" stroke="black" points="543.361,-220.309 539.061,-230.396 543.46,-225.308 543.56,-230.307 543.56,-230.307 543.56,-230.307 543.46,-225.308 548.059,-230.217 543.361,-220.309 543.361,-220.309"/>
<ellipse fill="black" stroke="black" cx="573.034" cy="-165.367" rx="4.00002" ry="4.00002"/>
<text text-anchor="middle" x="612.272" y="-200.3" font-family="Times,serif" font-size="14.00">delegates_as_delegator</text>
</g>
<!-- User&#45;&gt;Item -->
<g id="edge14" class="edge"><title>User&#45;&gt;Item</title>
<path fill="none" stroke="black" d="M511.975,-366.341C361.065,-388.485 102.478,-436.301 46.2723,-510 -15.1772,-590.575 -15.633,-657.774 46.2723,-738 106.319,-815.817 394.964,-861.343 539.475,-879.614"/>
<polygon fill="black" stroke="black" points="512.307,-366.293 522.85,-369.309 517.255,-365.574 522.203,-364.856 522.203,-364.856 522.203,-364.856 517.255,-365.574 521.556,-360.402 512.307,-366.293 512.307,-366.293"/>
<ellipse fill="black" stroke="black" cx="543.545" cy="-880.124" rx="4.00001" ry="4.00001"/>
</g>
<!-- Community -->
<g id="node14" class="node"><title>Community</title>
<polyline fill="none" stroke="black" points="939.772,-86.5 1046.77,-86.5 "/>
<path fill="none" stroke="black" d="M1046.77,-86.5C1052.77,-86.5 1058.77,-92.5 1058.77,-98.5"/>
<polyline fill="none" stroke="black" points="1058.77,-98.5 1058.77,-165.5 "/>
<path fill="none" stroke="black" d="M1058.77,-165.5C1058.77,-171.5 1052.77,-177.5 1046.77,-177.5"/>
<polyline fill="none" stroke="black" points="1046.77,-177.5 939.772,-177.5 "/>
<path fill="none" stroke="black" d="M939.772,-177.5C933.772,-177.5 927.772,-171.5 927.772,-165.5"/>
<polyline fill="none" stroke="black" points="927.772,-165.5 927.772,-98.5 "/>
<path fill="none" stroke="black" d="M927.772,-98.5C927.772,-92.5 933.772,-86.5 939.772,-86.5"/>
<text text-anchor="middle" x="993.272" y="-162.3" font-family="Times,serif" font-size="14.00">Community</text>
<polyline fill="none" stroke="black" points="927.772,-154.5 1058.77,-154.5 "/>
<text text-anchor="start" x="935.772" y="-139.3" font-family="Times,serif" font-size="14.00">name :string</text>
<text text-anchor="start" x="935.772" y="-124.3" font-family="Times,serif" font-size="14.00">description :text</text>
<text text-anchor="start" x="935.772" y="-109.3" font-family="Times,serif" font-size="14.00">created_at :datetime</text>
<text text-anchor="start" x="935.772" y="-94.3" font-family="Times,serif" font-size="14.00">updated_at :datetime</text>
</g>
<!-- User&#45;&gt;Community -->
<g id="edge18" class="edge"><title>User&#45;&gt;Community</title>
<path fill="none" stroke="black" d="M731.552,-286.082C791.848,-250.814 865.15,-207.94 918.823,-176.546"/>
<polygon fill="black" stroke="black" points="731.302,-286.228 720.398,-287.392 726.986,-288.752 722.67,-291.277 722.67,-291.277 722.67,-291.277 726.986,-288.752 724.942,-295.161 731.302,-286.228 731.302,-286.228"/>
<polygon fill="black" stroke="black" points="918.966,-176.462 929.87,-175.297 923.282,-173.938 927.598,-171.413 927.598,-171.413 927.598,-171.413 923.282,-173.938 925.326,-167.529 918.966,-176.462 918.966,-176.462"/>
</g>
<!-- Ability -->
<g id="node9" class="node"><title>Ability</title>
<polygon fill="none" stroke="black" points="682.772,-1053 682.772,-1099 737.772,-1099 737.772,-1053 682.772,-1053"/>
<text text-anchor="middle" x="710.272" y="-1083.8" font-family="Times,serif" font-size="14.00">Ability</text>
<polyline fill="none" stroke="black" points="682.772,-1076 737.772,-1076 "/>
<text text-anchor="middle" x="710.272" y="-1060.8" font-family="Times,serif" font-size="14.00"> </text>
</g>
<!-- Event -->
<g id="node10" class="node"><title>Event</title>
<polyline fill="none" stroke="black" points="884.772,-511 1009.77,-511 "/>
<path fill="none" stroke="black" d="M1009.77,-511C1015.77,-511 1021.77,-517 1021.77,-523"/>
<polyline fill="none" stroke="black" points="1021.77,-523 1021.77,-725 "/>
<path fill="none" stroke="black" d="M1021.77,-725C1021.77,-731 1015.77,-737 1009.77,-737"/>
<polyline fill="none" stroke="black" points="1009.77,-737 884.772,-737 "/>
<path fill="none" stroke="black" d="M884.772,-737C878.772,-737 872.772,-731 872.772,-725"/>
<polyline fill="none" stroke="black" points="872.772,-725 872.772,-523 "/>
<path fill="none" stroke="black" d="M872.772,-523C872.772,-517 878.772,-511 884.772,-511"/>
<text text-anchor="middle" x="947.272" y="-721.8" font-family="Times,serif" font-size="14.00">Event</text>
<polyline fill="none" stroke="black" points="872.772,-714 1021.77,-714 "/>
<text text-anchor="start" x="880.772" y="-698.8" font-family="Times,serif" font-size="14.00">title :string</text>
<text text-anchor="start" x="880.772" y="-683.8" font-family="Times,serif" font-size="14.00">description :text</text>
<text text-anchor="start" x="880.772" y="-668.8" font-family="Times,serif" font-size="14.00">expires_on :date</text>
<text text-anchor="start" x="880.772" y="-653.8" font-family="Times,serif" font-size="14.00">created_at :datetime</text>
<text text-anchor="start" x="880.772" y="-638.8" font-family="Times,serif" font-size="14.00">updated_at :datetime</text>
<text text-anchor="start" x="880.772" y="-623.8" font-family="Times,serif" font-size="14.00">cost :string</text>
<text text-anchor="start" x="880.772" y="-608.8" font-family="Times,serif" font-size="14.00">condition :string</text>
<text text-anchor="start" x="880.772" y="-593.8" font-family="Times,serif" font-size="14.00">link :string</text>
<text text-anchor="start" x="880.772" y="-578.8" font-family="Times,serif" font-size="14.00">location :string</text>
<text text-anchor="start" x="880.772" y="-563.8" font-family="Times,serif" font-size="14.00">start_datetime :datetime</text>
<text text-anchor="start" x="880.772" y="-548.8" font-family="Times,serif" font-size="14.00">end_datetime :datetime</text>
<text text-anchor="start" x="880.772" y="-533.8" font-family="Times,serif" font-size="14.00">active :boolean</text>
<text text-anchor="start" x="880.772" y="-518.8" font-family="Times,serif" font-size="14.00">public :boolean</text>
</g>
<!-- Item&#45;&gt;HaveIt -->
<g id="edge2" class="edge"><title>Item&#45;&gt;HaveIt</title>
<path fill="none" stroke="black" d="M547.686,-875.113C460.539,-855.989 315.305,-814.839 213.272,-738 210.453,-735.877 207.687,-733.631 204.976,-731.285"/>
</g>
<!-- Item&#45;&gt;WantIt -->
<g id="edge4" class="edge"><title>Item&#45;&gt;WantIt</title>
<path fill="none" stroke="black" d="M547.771,-851.794C497.451,-824.494 431.33,-784.227 381.272,-738 378.13,-735.098 375.024,-732.064 371.965,-728.931"/>
</g>
<!-- Item&#45;&gt;Thought -->
<g id="edge6" class="edge"><title>Item&#45;&gt;Thought</title>
<path fill="none" stroke="black" d="M555.037,-776.657C547.226,-763.606 539.258,-750.292 531.447,-737.242"/>
</g>
<!-- Item&#45;&gt;List -->
<g id="edge34" class="edge"><title>Item&#45;&gt;List</title>
<path fill="none" stroke="black" d="M622.272,-766.529C622.272,-733.065 622.272,-698.78 622.272,-672.336"/>
<polygon fill="black" stroke="black" points="622.272,-766.657 617.772,-776.657 622.272,-771.657 622.272,-776.657 622.272,-776.657 622.272,-776.657 622.272,-771.657 626.772,-776.657 622.272,-766.657 622.272,-766.657"/>
<polygon fill="black" stroke="black" points="622.272,-672.241 626.772,-662.241 622.272,-667.241 622.272,-662.241 622.272,-662.241 622.272,-662.241 622.272,-667.241 617.772,-662.241 622.272,-672.241 622.272,-672.241"/>
</g>
<!-- Item&#45;&gt;Link -->
<g id="edge12" class="edge"><title>Item&#45;&gt;Link</title>
<path fill="none" stroke="black" d="M689.508,-776.657C697.319,-763.606 705.287,-750.292 713.097,-737.242"/>
</g>
<!-- Item&#45;&gt;Event -->
<g id="edge28" class="edge"><title>Item&#45;&gt;Event</title>
<path fill="none" stroke="black" d="M696.774,-851.794C747.094,-824.494 813.215,-784.227 863.272,-738 866.415,-735.098 869.521,-732.064 872.579,-728.931"/>
</g>
<!-- ItemVisibilityRule -->
<g id="node13" class="node"><title>ItemVisibilityRule</title>
<polyline fill="none" stroke="black" points="1002.77,-1 1111.77,-1 "/>
<path fill="none" stroke="black" d="M1111.77,-1C1117.77,-1 1123.77,-7 1123.77,-13"/>
<polyline fill="none" stroke="black" points="1123.77,-13 1123.77,-35 "/>
<path fill="none" stroke="black" d="M1123.77,-35C1123.77,-41 1117.77,-47 1111.77,-47"/>
<polyline fill="none" stroke="black" points="1111.77,-47 1002.77,-47 "/>
<path fill="none" stroke="black" d="M1002.77,-47C996.772,-47 990.772,-41 990.772,-35"/>
<polyline fill="none" stroke="black" points="990.772,-35 990.772,-13 "/>
<path fill="none" stroke="black" d="M990.772,-13C990.772,-7 996.772,-1 1002.77,-1"/>
<text text-anchor="middle" x="1057.27" y="-31.8" font-family="Times,serif" font-size="14.00">ItemVisibilityRule</text>
<polyline fill="none" stroke="black" points="990.772,-24 1123.77,-24 "/>
<text text-anchor="start" x="998.772" y="-8.8" font-family="Times,serif" font-size="14.00">visibility_type :string</text>
</g>
<!-- Item&#45;&gt;ItemVisibilityRule -->
<g id="edge30" class="edge"><title>Item&#45;&gt;ItemVisibilityRule</title>
<path fill="none" stroke="black" d="M706.794,-869.93C791.237,-849.028 923.373,-811.238 1029.27,-758 1086.89,-729.035 1087.27,-689.487 1087.27,-625 1087.27,-625 1087.27,-625 1087.27,-131 1087.27,-104.544 1078.51,-75.7296 1070.46,-54.83"/>
<polygon fill="black" stroke="black" points="706.705,-869.951 695.921,-867.962 701.849,-871.142 696.993,-872.333 696.993,-872.333 696.993,-872.333 701.849,-871.142 698.064,-876.703 706.705,-869.951 706.705,-869.951"/>
<ellipse fill="black" stroke="black" cx="1068.91" cy="-50.9443" rx="4.00001" ry="4.00001"/>
</g>
<!-- Item&#45;&gt;Community -->
<g id="edge32" class="edge"><title>Item&#45;&gt;Community</title>
<path fill="none" stroke="black" d="M707.137,-884.75C803.741,-874.831 957.542,-842.469 1030.27,-738 1091.51,-650.042 1031.87,-319.03 1004.94,-187.435"/>
<polygon fill="black" stroke="black" points="707.055,-884.757 696.668,-881.241 702.078,-885.239 697.102,-885.721 697.102,-885.721 697.102,-885.721 702.078,-885.239 697.535,-890.2 707.055,-884.757 707.055,-884.757"/>
<polygon fill="black" stroke="black" points="1004.93,-187.358 1007.32,-176.655 1003.92,-182.461 1002.91,-177.564 1002.91,-177.564 1002.91,-177.564 1003.92,-182.461 998.502,-178.472 1004.93,-187.358 1004.93,-187.358"/>
</g>
<!-- Community&#45;&gt;ItemVisibilityRule -->
<g id="edge36" class="edge"><title>Community&#45;&gt;ItemVisibilityRule</title>
<path fill="none" stroke="black" d="M1025.46,-77.695C1030.36,-69.5686 1035.26,-61.4517 1039.7,-54.1086"/>
<polygon fill="black" stroke="black" points="1025.4,-77.793 1016.38,-84.0277 1022.81,-82.0733 1020.23,-86.3537 1020.23,-86.3537 1020.23,-86.3537 1022.81,-82.0733 1024.08,-88.6796 1025.4,-77.793 1025.4,-77.793"/>
<ellipse fill="black" stroke="black" cx="1041.89" cy="-50.476" rx="4.00002" ry="4.00002"/>
</g>
</g>
</svg>
